<svg version="1.1" id="Layer_1" xmlns="http://www.w3.org/2000/svg" xmlns:xlink="http://www.w3.org/1999/xlink" x="0px" y="0px"
	 width="100%" viewBox="0 0 369 94" enable-background="new 0 0 369 94" xml:space="preserve">
<path fill="#000000" opacity="1.000000" stroke="none" 
	d="
M370.000000,71.000000 
	C370.000000,78.988838 370.000000,86.977684 370.000000,95.000000 
	C273.645782,95.000000 177.291550,95.000000 80.129440,94.758667 
	C80.697853,93.402740 82.372971,92.508591 83.390442,91.129311 
	C85.770737,87.902588 87.835571,84.443161 90.408554,80.857124 
	C90.856934,59.408577 90.933876,38.180878 90.952095,16.953125 
	C90.952682,16.276463 90.350227,15.599281 90.007874,14.547471 
	C88.742844,9.403201 86.202652,5.648906 81.757462,3.250081 
	C80.990303,2.836087 80.576843,1.766669 80.000000,1.000000 
	C176.666687,1.000000 273.333374,1.000000 370.000000,1.000000 
	C370.000000,15.767700 370.000000,30.415192 369.579010,45.601311 
	C362.714813,44.260597 360.739746,49.700420 357.808289,53.487305 
	C354.313934,50.373116 353.555054,43.171127 345.975983,47.052441 
	C348.281403,50.742970 350.523468,54.332058 352.826904,58.019402 
	C350.379578,62.112648 347.956390,66.165611 345.497742,70.277802 
	C353.279175,73.502945 353.821899,65.506630 357.875977,62.743652 
	C360.379822,68.212524 363.351959,72.479088 370.000000,71.000000 
M171.992493,38.996967 
	C171.992493,38.996967 172.016663,38.997875 171.266327,39.004414 
	C168.579102,42.266888 170.316299,44.315372 173.212082,46.016346 
	C176.381668,47.878155 178.638580,46.104530 180.356918,43.798000 
	C182.049973,41.525398 180.872604,38.836864 177.452866,37.088036 
	C177.452866,37.088036 177.071518,36.973549 176.878342,36.306816 
	C173.607727,34.254009 172.299301,35.728256 171.992493,38.996967 
M267.256836,38.468239 
	C263.419342,32.678246 257.134705,31.122189 249.077881,34.223080 
	C252.450455,39.562370 255.781723,44.836231 258.783997,50.738419 
	C256.924530,54.214272 255.065048,57.690128 253.056396,61.444836 
	C242.246140,40.451584 230.087967,22.161919 204.010132,21.078688 
	C204.148834,21.602468 204.511719,21.879875 204.917496,21.975639 
	C214.998062,24.354643 223.910461,29.010462 230.956299,36.585033 
	C238.845657,45.066456 243.753967,55.372368 246.600418,66.495079 
	C247.477402,69.922012 248.449661,71.676743 251.974380,70.965057 
	C254.928192,70.368660 258.527344,71.156158 259.198914,66.226898 
	C259.679047,62.702744 261.665619,59.383827 263.264526,56.594769 
	C266.525604,61.318844 269.786652,66.042915 273.542267,71.483406 
	C282.037567,58.553329 290.044891,46.365986 298.827942,32.997944 
	C294.285553,32.997944 291.173737,33.198738 288.098999,32.946774 
	C284.314056,32.636604 281.899994,33.930088 280.133057,37.421780 
	C278.382080,40.881977 275.933075,43.988956 273.404388,47.838161 
	C272.286133,45.675247 271.541962,44.235836 270.929077,42.122505 
	C279.250671,31.247025 290.089569,24.261145 303.525238,20.814949 
	C300.252014,20.355114 297.113281,20.389650 294.114258,21.054607 
	C283.006348,23.517519 274.270874,29.612091 267.256836,38.468239 
M126.345940,39.510494 
	C132.641296,38.336853 138.954819,37.248844 145.217285,35.920254 
	C146.534271,35.640858 147.663773,34.477737 148.879654,33.721825 
	C147.650452,32.817272 146.521149,31.689203 145.159653,31.080662 
	C144.117386,30.614809 142.781723,30.805412 141.576553,30.704035 
	C144.747665,29.992413 147.906586,30.191978 151.018692,29.897167 
	C152.318726,29.774014 153.519241,28.600149 154.764999,27.904020 
	C153.454849,27.271423 152.134109,26.075758 150.836319,26.100185 
	C143.882690,26.231054 136.934799,26.666058 130.332443,26.282284 
	C136.436142,25.282129 142.539825,24.281973 150.181732,23.029766 
	C148.468948,21.651690 147.482620,20.193249 146.415512,20.131525 
	C143.824615,19.981667 141.182495,20.382364 138.585831,20.740932 
	C133.970779,21.378208 129.374130,22.148506 124.769775,22.863161 
	C124.707893,22.421453 124.646011,21.979746 124.584129,21.538038 
	C130.989182,20.691738 137.383041,19.742540 143.804138,19.043657 
	C146.896118,18.707121 149.717819,18.543285 148.612411,13.834319 
	C144.319763,14.248871 140.300491,14.168571 136.533661,15.104382 
	C129.954132,16.738970 123.290695,18.450161 117.106506,21.147436 
	C110.673172,23.953377 107.179703,33.260265 115.680656,39.061474 
	C122.035347,43.398029 129.208008,45.387207 137.379730,44.913429 
	C133.226547,43.174950 129.552887,41.637196 126.345940,39.510494 
M147.421310,46.656162 
	C141.960526,47.770798 136.519165,48.996349 131.031357,49.956596 
	C127.960526,50.493927 124.818085,50.742741 121.698395,50.853439 
	C116.273094,51.045944 118.311974,55.074516 118.074821,57.803509 
	C117.753059,61.506302 120.625099,61.128143 122.855644,60.954288 
	C129.916901,60.403938 136.963684,59.667957 143.677795,59.711868 
	C131.261353,60.829227 118.844917,61.946583 106.303818,63.075161 
	C106.303818,63.903156 106.303818,65.288269 106.303818,67.013733 
	C110.202225,67.013733 113.813469,67.013733 117.586800,67.013733 
	C117.917145,68.832176 118.192955,70.350418 118.453201,71.782990 
	C133.803406,72.692078 145.651749,70.271378 155.548706,65.186043 
	C162.336182,61.698456 164.505966,52.531067 158.818176,48.188919 
	C152.207352,43.142105 144.711349,41.824825 136.659973,41.809822 
	C140.403732,43.248661 144.147491,44.687500 147.421310,46.656162 
M301.157928,69.656219 
	C310.534912,73.638100 318.271454,69.671043 320.051666,59.968086 
	C321.310486,53.106960 317.983856,48.235542 310.376282,45.799778 
	C304.965698,44.067436 298.447754,47.073944 295.828888,52.510002 
	C293.049438,58.279430 295.165649,65.700134 301.157928,69.656219 
M206.125168,65.036797 
	C210.355301,73.269363 219.829895,74.717789 226.727234,68.077454 
	C225.475723,64.683983 223.316025,64.945724 220.431351,66.139954 
	C215.774750,68.067726 213.449356,66.620140 212.431396,60.984673 
	C216.150742,60.984673 219.764374,61.141857 223.350525,60.896904 
	C224.557770,60.814442 226.555542,59.877949 226.717911,59.044598 
	C227.481461,55.125374 226.988129,51.424145 223.071457,49.047173 
	C218.523834,46.287277 213.197327,46.447266 209.061691,49.581512 
	C205.646805,52.169525 204.273987,58.658993 206.125168,65.036797 
M200.830246,51.329849 
	C200.155869,50.248493 199.420273,48.202709 198.816956,48.240993 
	C194.639328,48.506115 193.720581,46.398823 193.855057,42.783905 
	C193.886612,41.935432 192.502243,41.034283 191.769302,40.157375 
	C190.883560,40.972469 189.765808,41.644753 189.158554,42.631268 
	C187.729828,44.952366 186.544830,47.423485 184.846756,50.612186 
	C189.390884,53.372181 187.899170,59.024933 187.993408,64.263794 
	C188.105164,70.477043 191.046951,73.059647 197.155365,71.841568 
	C198.480698,71.577286 199.568863,70.123634 200.766251,69.217781 
	C199.617294,68.271935 198.466278,67.328575 197.319962,66.379539 
	C196.249695,65.493454 194.378098,64.693558 194.263901,63.695084 
	C193.878204,60.322613 194.116928,56.878727 194.116928,53.713902 
	C196.787094,53.051315 198.675766,52.582657 200.830246,51.329849 
M333.000275,64.425201 
	C332.964478,58.534378 331.606537,51.870800 340.858002,51.514889 
	C341.247467,51.499905 341.919586,49.242195 341.770050,48.121387 
	C341.667419,47.352619 340.270172,46.086948 339.620758,46.183300 
	C337.457855,46.504223 335.371307,47.339569 333.519318,47.898174 
	C331.915558,47.310246 330.369873,46.518139 328.746033,46.295059 
	C328.298431,46.233566 327.139465,47.858639 327.120117,48.727913 
	C326.976654,55.182137 326.930115,61.644638 327.151611,68.094284 
	C327.184967,69.066910 328.880432,70.834152 329.610657,70.738266 
	C330.806915,70.581169 332.068726,69.361237 332.860565,68.268921 
	C333.338715,67.609245 332.981628,66.344101 333.000275,64.425201 
M172.000137,59.510567 
	C172.006393,62.496433 172.091949,65.484886 171.994644,68.467369 
	C171.912003,71.000275 172.952713,72.017525 175.512711,72.019615 
	C178.096313,72.021721 179.046921,70.951729 179.008698,68.442230 
	C178.922806,62.803577 178.920624,57.161762 179.008850,51.523186 
	C179.048569,48.984886 178.035629,47.981758 175.481812,47.978737 
	C172.894196,47.975677 171.893051,49.052029 171.996094,51.560135 
	C172.091354,53.878311 172.005981,56.203915 172.000137,59.510567 
M152.807770,23.997095 
	C157.056686,23.997095 161.305603,23.997095 165.554520,23.997095 
	C165.834030,23.515894 166.113525,23.034691 166.393036,22.553490 
	C165.315063,21.703316 164.282410,20.197987 163.151062,20.119768 
	C158.924957,19.827585 154.666519,20.002972 148.831039,20.002972 
	C150.375809,22.018764 151.128326,23.000729 152.807770,23.997095 
M159.116821,31.027361 
	C156.952942,31.035826 154.765457,30.863010 152.636520,31.140005 
	C151.757645,31.254358 150.234070,32.548107 150.341232,32.934067 
	C150.639404,34.007912 151.528671,35.576267 152.381729,35.712299 
	C154.815674,36.100433 157.524521,36.449493 159.797546,35.749680 
	C162.870743,34.803505 162.986740,32.787556 159.116821,31.027361 
M114.495872,51.104401 
	C112.176575,52.582722 110.827003,59.027912 112.794273,60.245781 
	C113.670959,60.788502 115.359840,60.019241 116.680092,59.845448 
	C116.233833,56.955910 115.787567,54.066372 114.495872,51.104401 
M160.568405,29.999638 
	C161.232925,29.994780 162.040924,30.230736 162.533493,29.937262 
	C163.729843,29.224470 164.779556,28.265572 165.888351,27.405832 
	C164.713913,26.616215 163.605072,25.686621 162.338684,25.093201 
	C161.656250,24.773411 160.607574,24.790026 159.894394,25.077389 
	C158.574112,25.609356 157.378891,26.451723 156.131577,27.164804 
	C157.319733,28.107363 158.507904,29.049919 160.568405,29.999638 
M107.707283,56.149273 
	C107.405746,57.590988 107.104218,59.032700 106.802681,60.474411 
	C108.095947,60.269348 109.389206,60.064289 110.682472,59.859230 
	C109.955780,58.602711 109.229088,57.346191 107.707283,56.149273 
z"/>
<path fill="#5AC0BE" opacity="1.000000" stroke="none" 
	d="
M90.028145,81.077965 
	C87.835571,84.443161 85.770737,87.902588 83.390442,91.129311 
	C82.372971,92.508591 80.697853,93.402740 79.660782,94.758667 
	C57.645771,95.000000 35.291542,95.000000 12.807161,94.758102 
	C9.126649,90.907448 5.582774,87.292175 1.997748,83.718178 
	C1.877919,83.598717 1.341979,83.896637 1.000000,84.000000 
	C1.000000,83.250000 1.000000,82.500000 1.096422,81.266647 
	C1.297492,80.484894 1.233211,80.223793 1.000000,80.000000 
	C1.000000,58.979103 1.000000,37.958210 1.091590,16.355619 
	C1.304208,15.474689 1.243148,15.216713 1.000000,15.000000 
	C1.000000,14.250000 1.000000,13.500000 1.241224,12.713221 
	C5.095037,9.125957 8.714065,5.581897 12.291769,1.996602 
	C12.409344,1.878778 12.106739,1.341663 12.000000,1.000000 
	C12.750000,1.000000 13.500000,1.000000 14.978312,1.214389 
	C16.838961,1.617131 17.970982,1.967414 19.103683,1.969626 
	C36.979183,2.004529 54.854851,2.017285 72.730171,1.952084 
	C74.154594,1.946888 75.576775,1.331707 77.000000,0.999999 
	C77.750000,1.000000 78.500000,1.000000 79.625000,1.000000 
	C80.576843,1.766669 80.990303,2.836087 81.757462,3.250081 
	C86.202652,5.648906 88.742844,9.403201 89.997231,15.020756 
	C90.014442,37.605263 90.021294,59.341614 90.028145,81.077965 
M71.412636,54.348381 
	C71.591667,50.909069 71.989075,47.461792 71.864113,44.033562 
	C71.794197,42.115707 70.862335,40.220711 67.666260,42.150932 
	C66.993919,42.040188 66.321571,41.929443 65.402000,41.005413 
	C64.434105,37.169388 63.767647,33.220547 62.389439,29.538082 
	C61.510658,27.190063 59.993958,24.266855 57.988544,23.405687 
	C56.310574,22.685129 53.508598,24.582041 50.997044,25.386282 
	C50.910526,25.248365 50.661171,24.577662 50.190842,24.149971 
	C48.466770,22.582195 46.479446,19.709312 44.946072,19.919268 
	C42.906601,20.198519 40.533752,22.572020 39.503304,24.642586 
	C37.910439,27.843254 36.992188,31.491165 36.386246,35.051258 
	C34.294891,47.338577 34.536724,59.591599 38.922173,71.374084 
	C39.884075,73.958435 42.818222,75.808723 44.844112,77.997063 
	C46.880722,76.028900 48.914089,74.057350 50.958702,72.097534 
	C51.175018,71.890182 51.457394,71.751755 51.705761,71.583633 
	C57.174351,76.329239 59.924480,75.735390 62.205669,68.669670 
	C63.721024,63.976040 64.343567,58.994160 66.054024,54.072720 
	C66.744354,54.041573 67.434692,54.010426 68.394432,54.385715 
	C68.575760,54.655598 68.751396,54.929138 69.093361,55.653816 
	C69.749825,55.474133 70.406288,55.294449 71.412636,54.348381 
M28.815285,37.578369 
	C30.996904,32.957661 33.178524,28.336948 35.532204,23.351809 
	C24.110893,27.134674 17.074867,39.913464 18.753742,52.954845 
	C19.933647,62.120266 28.824677,72.854500 35.567165,73.253876 
	C25.999506,50.590065 25.833742,49.762135 28.815285,37.578369 
z"/>
<path fill="#105155" opacity="1.000000" stroke="none" 
	d="
M370.000000,70.625000 
	C363.351959,72.479088 360.379822,68.212524 357.875977,62.743652 
	C353.821899,65.506630 353.279175,73.502945 345.497742,70.277802 
	C347.956390,66.165611 350.379578,62.112648 352.826904,58.019402 
	C350.523468,54.332058 348.281403,50.742970 345.975983,47.052441 
	C353.555054,43.171127 354.313934,50.373116 357.808289,53.487305 
	C360.739746,49.700420 362.714813,44.260597 369.579010,46.069969 
	C370.000000,46.444447 370.000000,46.888889 369.649109,47.644978 
	C366.814850,51.319286 364.331512,54.681953 361.556549,58.439480 
	C364.585205,61.868813 367.292603,64.934402 370.000000,68.000000 
	C370.000000,68.750000 370.000000,69.500000 370.000000,70.625000 
z"/>
<path fill="#000000" opacity="1.000000" stroke="none" 
	d="
M370.000000,67.531593 
	C367.292603,64.934402 364.585205,61.868813 361.556549,58.439480 
	C364.331512,54.681953 366.814850,51.319286 369.649109,47.978310 
	C370.000000,54.354397 370.000000,60.708797 370.000000,67.531593 
z"/>
<path fill="#000000" opacity="1.000000" stroke="none" 
	d="
M1.000000,84.482956 
	C1.341979,83.896637 1.877919,83.598717 1.997748,83.718178 
	C5.582774,87.292175 9.126649,90.907448 12.338503,94.758102 
	C8.412791,95.000000 4.825583,95.000000 1.000000,95.000000 
	C1.000000,91.657448 1.000000,88.311684 1.000000,84.482956 
z"/>
<path fill="#000000" opacity="1.000000" stroke="none" 
	d="
M11.517044,1.000000 
	C12.106739,1.341663 12.409344,1.878778 12.291769,1.996602 
	C8.714065,5.581897 5.095037,9.125957 1.241224,12.338221 
	C1.000000,8.412791 1.000000,4.825583 1.000000,1.000000 
	C4.342551,1.000000 7.688319,1.000000 11.517044,1.000000 
z"/>
<path fill="#74B7B7" opacity="1.000000" stroke="none" 
	d="
M76.531342,0.999999 
	C75.576775,1.331707 74.154594,1.946888 72.730171,1.952084 
	C54.854851,2.017285 36.979183,2.004529 19.103683,1.969626 
	C17.970982,1.967414 16.838961,1.617131 15.353312,1.214389 
	C35.354229,1.000000 55.708454,1.000000 76.531342,0.999999 
z"/>
<path fill="#5EBBB8" opacity="1.000000" stroke="none" 
	d="
M1.000000,15.250000 
	C1.243148,15.216713 1.304208,15.474689 1.091590,15.886963 
	C1.000000,16.000000 1.000000,15.500000 1.000000,15.250000 
z"/>
<path fill="#5EBBB8" opacity="1.000000" stroke="none" 
	d="
M1.000000,80.250000 
	C1.233211,80.223793 1.297492,80.484894 1.096422,80.891647 
	C1.000000,81.000000 1.000000,80.500000 1.000000,80.250000 
z"/>
<path fill="#105054" opacity="1.000000" stroke="none" 
	d="
M270.797760,42.796421 
	C271.541962,44.235836 272.286133,45.675247 273.404388,47.838161 
	C275.933075,43.988956 278.382080,40.881977 280.133057,37.421780 
	C281.899994,33.930088 284.314056,32.636604 288.098999,32.946774 
	C291.173737,33.198738 294.285553,32.997944 298.827942,32.997944 
	C290.044891,46.365986 282.037567,58.553329 273.542267,71.483406 
	C269.786652,66.042915 266.525604,61.318844 263.115570,55.983086 
	C262.947205,54.970753 262.927795,54.570099 263.094086,53.866070 
	C265.232849,49.929783 267.185913,46.296875 269.415649,42.684116 
	C270.060760,42.734982 270.429260,42.765701 270.797760,42.796421 
z"/>
<path fill="#35AEB9" opacity="1.000000" stroke="none" 
	d="
M147.891251,46.126335 
	C144.147491,44.687500 140.403732,43.248661 136.659973,41.809822 
	C144.711349,41.824825 152.207352,43.142105 158.818176,48.188919 
	C164.505966,52.531067 162.336182,61.698456 155.548706,65.186043 
	C145.651749,70.271378 133.803406,72.692078 118.453201,71.782990 
	C118.192955,70.350418 117.917145,68.832176 117.586800,67.013733 
	C113.813469,67.013733 110.202225,67.013733 106.303818,67.013733 
	C106.303818,65.288269 106.303818,63.903156 106.303818,63.075161 
	C118.844917,61.946583 131.261353,60.829227 144.224030,59.348732 
	C148.946899,56.976368 153.123550,54.967140 157.300217,52.957912 
	C157.282135,52.281025 157.264069,51.604134 157.246002,50.927246 
	C154.127747,49.326942 151.009506,47.726639 147.891251,46.126335 
M143.550125,65.110260 
	C145.166489,64.725449 146.782837,64.340645 148.399200,63.955841 
	C148.349899,63.785542 148.300613,63.615242 148.251312,63.444946 
	C140.147018,64.631050 132.042709,65.817162 123.938416,67.003265 
	C124.020302,67.494102 124.102188,67.984932 124.184074,68.475769 
	C130.418747,67.517273 136.653427,66.558777 143.550125,65.110260 
z"/>
<path fill="#59C0BF" opacity="1.000000" stroke="none" 
	d="
M300.862030,69.388954 
	C295.165649,65.700134 293.049438,58.279430 295.828888,52.510002 
	C298.447754,47.073944 304.965698,44.067436 310.376282,45.799778 
	C317.983856,48.235542 321.310486,53.106960 320.051666,59.968086 
	C318.271454,69.671043 310.534912,73.638100 300.862030,69.388954 
z"/>
<path fill="#59C0BF" opacity="1.000000" stroke="none" 
	d="
M262.908386,54.169449 
	C262.927795,54.570099 262.947205,54.970753 262.973328,55.672371 
	C261.665619,59.383827 259.679047,62.702744 259.198914,66.226898 
	C258.527344,71.156158 254.928192,70.368660 251.974380,70.965057 
	C248.449661,71.676743 247.477402,69.922012 246.600418,66.495079 
	C243.753967,55.372368 238.845657,45.066456 230.956299,36.585033 
	C223.910461,29.010462 214.998062,24.354643 204.917496,21.975639 
	C204.511719,21.879875 204.148834,21.602468 204.010132,21.078688 
	C230.087967,22.161919 242.246140,40.451584 253.056396,61.444836 
	C255.065048,57.690128 256.924530,54.214272 259.251221,50.512703 
	C260.781769,51.581142 261.845093,52.875294 262.908386,54.169449 
z"/>
<path fill="#36AEB9" opacity="1.000000" stroke="none" 
	d="
M125.879234,40.099442 
	C129.552887,41.637196 133.226547,43.174950 137.379730,44.913429 
	C129.208008,45.387207 122.035347,43.398029 115.680656,39.061474 
	C107.179703,33.260265 110.673172,23.953377 117.106506,21.147436 
	C123.290695,18.450161 129.954132,16.738970 136.533661,15.104382 
	C140.300491,14.168571 144.319763,14.248871 148.612411,13.834319 
	C149.717819,18.543285 146.896118,18.707121 143.804138,19.043657 
	C137.383041,19.742540 130.989182,20.691738 124.584129,21.538038 
	C124.646011,21.979746 124.707893,22.421453 124.769775,22.863161 
	C129.374130,22.148506 133.970779,21.378208 138.585831,20.740932 
	C141.182495,20.382364 143.824615,19.981667 146.415512,20.131525 
	C147.482620,20.193249 148.468948,21.651690 150.181732,23.029766 
	C142.539825,24.281973 136.436142,25.282129 129.784149,26.672356 
	C125.533104,28.699837 121.808052,30.289093 118.135590,31.991802 
	C115.738976,33.102982 115.201469,34.998524 117.519653,36.426556 
	C120.086372,38.007679 123.074577,38.904579 125.879234,40.099442 
z"/>
<path fill="#105155" opacity="1.000000" stroke="none" 
	d="
M147.656281,46.391251 
	C151.009506,47.726639 154.127747,49.326942 157.246002,50.927246 
	C157.264069,51.604134 157.282135,52.281025 157.300217,52.957912 
	C153.123550,54.967140 148.946899,56.976368 144.393158,58.994682 
	C136.963684,59.667957 129.916901,60.403938 122.855644,60.954288 
	C120.625099,61.128143 117.753059,61.506302 118.074821,57.803509 
	C118.311974,55.074516 116.273094,51.045944 121.698395,50.853439 
	C124.818085,50.742741 127.960526,50.493927 131.031357,49.956596 
	C136.519165,48.996349 141.960526,47.770798 147.656281,46.391251 
z"/>
<path fill="#105155" opacity="1.000000" stroke="none" 
	d="
M206.041199,64.646729 
	C204.273987,58.658993 205.646805,52.169525 209.061691,49.581512 
	C213.197327,46.447266 218.523834,46.287277 223.071457,49.047173 
	C226.988129,51.424145 227.481461,55.125374 226.717911,59.044598 
	C226.555542,59.877949 224.557770,60.814442 223.350525,60.896904 
	C219.764374,61.141857 216.150742,60.984673 212.431396,60.984673 
	C213.449356,66.620140 215.774750,68.067726 220.431351,66.139954 
	C223.316025,64.945724 225.475723,64.683983 226.727234,68.077454 
	C219.829895,74.717789 210.355301,73.269363 206.041199,64.646729 
M214.972977,56.981709 
	C216.856781,56.877396 218.740585,56.773087 221.944397,56.595688 
	C220.305496,54.544651 219.532990,52.694813 218.617126,52.620888 
	C216.867493,52.479664 215.036194,53.349930 213.238815,53.800358 
	C213.554764,54.847374 213.870728,55.894390 214.972977,56.981709 
z"/>
<path fill="#105155" opacity="1.000000" stroke="none" 
	d="
M126.112587,39.804970 
	C123.074577,38.904579 120.086372,38.007679 117.519653,36.426556 
	C115.201469,34.998524 115.738976,33.102982 118.135590,31.991802 
	C121.808052,30.289093 125.533104,28.699837 129.610382,27.029202 
	C136.934799,26.666058 143.882690,26.231054 150.836319,26.100185 
	C152.134109,26.075758 153.454849,27.271423 154.764999,27.904018 
	C153.519241,28.600149 152.318726,29.774014 151.018692,29.897167 
	C147.906586,30.191978 144.747665,29.992413 141.576553,30.704035 
	C142.781723,30.805412 144.117386,30.614809 145.159653,31.080662 
	C146.521149,31.689203 147.650452,32.817272 148.879654,33.721825 
	C147.663773,34.477737 146.534271,35.640858 145.217285,35.920254 
	C138.954819,37.248844 132.641296,38.336853 126.112587,39.804970 
z"/>
<path fill="#105155" opacity="1.000000" stroke="none" 
	d="
M200.697327,51.721924 
	C198.675766,52.582657 196.787094,53.051315 194.116928,53.713902 
	C194.116928,56.878727 193.878204,60.322613 194.263901,63.695084 
	C194.378098,64.693558 196.249695,65.493454 197.319962,66.379539 
	C198.466278,67.328575 199.617294,68.271935 200.766251,69.217789 
	C199.568863,70.123634 198.480698,71.577286 197.155365,71.841568 
	C191.046951,73.059647 188.105164,70.477043 187.993408,64.263794 
	C187.899170,59.024933 189.390884,53.372181 184.846756,50.612186 
	C186.544830,47.423485 187.729828,44.952366 189.158554,42.631268 
	C189.765808,41.644753 190.883560,40.972469 191.769302,40.157372 
	C192.502243,41.034283 193.886612,41.935432 193.855057,42.783905 
	C193.720581,46.398823 194.639328,48.506115 198.816956,48.240993 
	C199.420273,48.202709 200.155869,50.248493 200.697327,51.721924 
z"/>
<path fill="#115256" opacity="1.000000" stroke="none" 
	d="
M263.094086,53.866066 
	C261.845093,52.875294 260.781769,51.581142 259.415710,50.198540 
	C255.781723,44.836231 252.450455,39.562370 249.077881,34.223080 
	C257.134705,31.122189 263.419342,32.678246 267.511017,39.028194 
	C268.223145,40.613426 268.681061,41.638699 269.139008,42.663971 
	C267.185913,46.296875 265.232849,49.929783 263.094086,53.866066 
z"/>
<path fill="#105155" opacity="1.000000" stroke="none" 
	d="
M333.000061,64.888107 
	C332.981628,66.344101 333.338715,67.609245 332.860565,68.268921 
	C332.068726,69.361237 330.806915,70.581169 329.610657,70.738266 
	C328.880432,70.834152 327.184967,69.066910 327.151611,68.094284 
	C326.930115,61.644638 326.976654,55.182137 327.120117,48.727913 
	C327.139465,47.858639 328.298431,46.233566 328.746033,46.295059 
	C330.369873,46.518139 331.915558,47.310246 333.519318,47.898174 
	C335.371307,47.339569 337.457855,46.504223 339.620758,46.183300 
	C340.270172,46.086948 341.667419,47.352619 341.770050,48.121387 
	C341.919586,49.242195 341.247467,51.499905 340.858002,51.514889 
	C331.606537,51.870800 332.964478,58.534378 333.000061,64.888107 
z"/>
<path fill="#105155" opacity="1.000000" stroke="none" 
	d="
M172.000153,59.018406 
	C172.005981,56.203915 172.091354,53.878311 171.996094,51.560135 
	C171.893051,49.052029 172.894196,47.975677 175.481812,47.978737 
	C178.035629,47.981758 179.048569,48.984886 179.008850,51.523186 
	C178.920624,57.161762 178.922806,62.803577 179.008698,68.442230 
	C179.046921,70.951729 178.096313,72.021721 175.512711,72.019615 
	C172.952713,72.017525 171.912003,71.000275 171.994644,68.467369 
	C172.091949,65.484886 172.006393,62.496433 172.000153,59.018406 
z"/>
<path fill="#58C0BE" opacity="1.000000" stroke="none" 
	d="
M269.415649,42.684120 
	C268.681061,41.638699 268.223145,40.613426 267.756653,39.249290 
	C274.270874,29.612091 283.006348,23.517519 294.114258,21.054607 
	C297.113281,20.389650 300.252014,20.355114 303.525238,20.814949 
	C290.089569,24.261145 279.250671,31.247025 270.863403,42.459465 
	C270.429260,42.765701 270.060760,42.734982 269.415649,42.684120 
z"/>
<path fill="#91CAC4" opacity="1.000000" stroke="none" 
	d="
M90.408554,80.857124 
	C90.021294,59.341614 90.014442,37.605263 90.018234,15.395628 
	C90.350227,15.599281 90.952682,16.276463 90.952095,16.953125 
	C90.933876,38.180878 90.856934,59.408577 90.408554,80.857124 
z"/>
<path fill="#36AEB9" opacity="1.000000" stroke="none" 
	d="
M152.344299,23.989895 
	C151.128326,23.000729 150.375809,22.018764 148.831039,20.002972 
	C154.666519,20.002972 158.924957,19.827585 163.151062,20.119768 
	C164.282410,20.197987 165.315063,21.703316 166.393036,22.553490 
	C166.113525,23.034691 165.834030,23.515894 165.554520,23.997095 
	C161.305603,23.997095 157.056686,23.997095 152.344299,23.989895 
z"/>
<path fill="#0E5053" opacity="1.000000" stroke="none" 
	d="
M159.549927,31.063847 
	C162.986740,32.787556 162.870743,34.803505 159.797546,35.749680 
	C157.524521,36.449493 154.815674,36.100433 152.381729,35.712299 
	C151.528671,35.576267 150.639404,34.007912 150.341232,32.934067 
	C150.234070,32.548107 151.757645,31.254358 152.636520,31.140005 
	C154.765457,30.863010 156.952942,31.035826 159.549927,31.063847 
z"/>
<path fill="#0F5055" opacity="1.000000" stroke="none" 
	d="
M114.918594,51.140617 
	C115.787567,54.066372 116.233833,56.955910 116.680092,59.845444 
	C115.359840,60.019241 113.670959,60.788502 112.794273,60.245781 
	C110.827003,59.027912 112.176575,52.582722 114.918594,51.140617 
z"/>
<path fill="#0E5054" opacity="1.000000" stroke="none" 
	d="
M160.132233,29.996056 
	C158.507904,29.049919 157.319733,28.107363 156.131577,27.164808 
	C157.378891,26.451723 158.574112,25.609356 159.894394,25.077389 
	C160.607574,24.790026 161.656250,24.773411 162.338684,25.093201 
	C163.605072,25.686621 164.713913,26.616215 165.888351,27.405830 
	C164.779556,28.265572 163.729843,29.224470 162.533493,29.937262 
	C162.040924,30.230736 161.232925,29.994780 160.132233,29.996056 
z"/>
<path fill="#165558" opacity="1.000000" stroke="none" 
	d="
M177.849365,37.124302 
	C180.872604,38.836864 182.049973,41.525398 180.356918,43.798000 
	C178.638580,46.104530 176.381668,47.878155 173.212082,46.016346 
	C170.316299,44.315372 168.579102,42.266888 171.683929,39.381622 
	C172.937927,41.285545 173.545670,43.042587 174.730225,44.218620 
	C175.166428,44.651672 177.747009,43.994278 177.980621,43.343132 
	C178.494446,41.910957 178.157227,40.165440 178.120987,38.548859 
	C178.110291,38.072220 177.944229,37.599060 177.849365,37.124302 
z"/>
<path fill="#D3DFDF" opacity="1.000000" stroke="none" 
	d="
M177.651123,37.106171 
	C177.944229,37.599060 178.110291,38.072220 178.120987,38.548859 
	C178.157227,40.165440 178.494446,41.910957 177.980621,43.343132 
	C177.747009,43.994278 175.166428,44.651672 174.730225,44.218620 
	C173.545670,43.042587 172.937927,41.285545 172.059082,39.378353 
	C172.016663,38.997875 171.992493,38.996967 172.329803,38.915451 
	C173.133682,38.260426 173.600220,37.686913 174.580292,36.482147 
	C174.876343,38.623779 175.063324,39.976513 175.385559,42.307602 
	C176.148788,39.892876 176.610153,38.433212 177.071518,36.973549 
	C177.071518,36.973549 177.452866,37.088036 177.651123,37.106171 
z"/>
<path fill="#0F5154" opacity="1.000000" stroke="none" 
	d="
M108.104836,56.119476 
	C109.229088,57.346191 109.955780,58.602711 110.682472,59.859230 
	C109.389206,60.064289 108.095947,60.269348 106.802681,60.474411 
	C107.104218,59.032700 107.405746,57.590988 108.104836,56.119476 
z"/>
<path fill="#165558" opacity="1.000000" stroke="none" 
	d="
M176.974930,36.640182 
	C176.610153,38.433212 176.148788,39.892876 175.385559,42.307602 
	C175.063324,39.976513 174.876343,38.623779 174.580292,36.482147 
	C173.600220,37.686913 173.133682,38.260426 172.334503,38.926838 
	C172.299301,35.728256 173.607727,34.254009 176.974930,36.640182 
z"/>
<path fill="#F8FBFB" opacity="1.000000" stroke="none" 
	d="
M65.365746,54.141308 
	C64.343567,58.994160 63.721024,63.976040 62.205669,68.669670 
	C59.924480,75.735390 57.174351,76.329239 51.705761,71.583633 
	C51.457394,71.751755 51.175018,71.890182 50.958702,72.097534 
	C48.914089,74.057350 46.880722,76.028900 44.844112,77.997063 
	C42.818222,75.808723 39.884075,73.958435 38.922173,71.374084 
	C34.536724,59.591599 34.294891,47.338577 36.386246,35.051258 
	C36.992188,31.491165 37.910439,27.843254 39.503304,24.642586 
	C40.533752,22.572020 42.906601,20.198519 44.946072,19.919268 
	C46.479446,19.709312 48.466770,22.582195 50.190842,24.149971 
	C50.661171,24.577662 50.910526,25.248365 50.997044,25.386282 
	C53.508598,24.582041 56.310574,22.685129 57.988544,23.405687 
	C59.993958,24.266855 61.510658,27.190063 62.389439,29.538082 
	C63.767647,33.220547 64.434105,37.169388 65.413033,41.876694 
	C65.404625,46.545750 65.385185,50.343529 65.365746,54.141308 
M43.240009,61.998207 
	C43.809185,63.550941 44.070538,65.341125 45.033787,66.589882 
	C46.004372,67.848137 47.672211,68.568550 49.034550,69.524620 
	C49.382641,68.075638 50.261711,66.520012 49.995472,65.194412 
	C47.706448,53.797382 47.329117,42.470211 50.332600,31.128138 
	C50.554741,30.289261 50.062477,28.593151 49.483784,28.367109 
	C48.619564,28.029537 46.910580,28.275778 46.400116,28.929201 
	C45.216228,30.444666 44.256241,32.268421 43.697166,34.115986 
	C40.989914,43.062607 41.123241,52.114876 43.240009,61.998207 
M54.993092,47.590683 
	C55.047138,58.172997 55.836895,60.577957 60.208580,62.845730 
	C64.940292,54.420887 63.912861,45.686146 61.692623,36.927082 
	C61.475243,36.069496 60.102646,34.917385 59.311352,34.951382 
	C58.453274,34.988247 57.144650,36.120708 56.910252,37.007420 
	C56.072449,40.176846 55.606857,43.444656 54.993092,47.590683 
z"/>
<path fill="#F6FAFA" opacity="1.000000" stroke="none" 
	d="
M28.697853,37.968147 
	C25.833742,49.762135 25.999506,50.590065 35.567165,73.253876 
	C28.824677,72.854500 19.933647,62.120266 18.753742,52.954845 
	C17.074867,39.913464 24.110893,27.134674 35.532204,23.351809 
	C33.178524,28.336948 30.996904,32.957661 28.697853,37.968147 
z"/>
<path fill="#F4FBFB" opacity="1.000000" stroke="none" 
	d="
M68.347443,42.204323 
	C70.862335,40.220711 71.794197,42.115707 71.864113,44.033562 
	C71.989075,47.461792 71.591667,50.909069 70.881264,54.756149 
	C69.873703,55.178055 69.397522,55.192192 68.921333,55.206333 
	C68.751396,54.929138 68.575760,54.655598 68.261864,53.724056 
	C68.202011,49.443039 68.274727,45.823681 68.347443,42.204323 
z"/>
<path fill="#88C6C3" opacity="1.000000" stroke="none" 
	d="
M68.006851,42.177628 
	C68.274727,45.823681 68.202011,49.443039 68.127159,53.520836 
	C67.434692,54.010426 66.744354,54.041573 65.709885,54.107014 
	C65.385185,50.343529 65.404625,46.545750 65.536652,42.283333 
	C66.321571,41.929443 66.993919,42.040188 68.006851,42.177628 
z"/>
<path fill="#88C6C3" opacity="1.000000" stroke="none" 
	d="
M69.007347,55.430077 
	C69.397522,55.192192 69.873703,55.178055 70.706322,55.139343 
	C70.406288,55.294449 69.749825,55.474133 69.007347,55.430077 
z"/>
<path fill="#000000" opacity="1.000000" stroke="none" 
	d="
M143.219116,65.355270 
	C136.653427,66.558777 130.418747,67.517273 124.184074,68.475769 
	C124.102188,67.984932 124.020302,67.494102 123.938416,67.003265 
	C132.042709,65.817162 140.147018,64.631050 148.251312,63.444946 
	C148.300613,63.615242 148.349899,63.785542 148.399200,63.955841 
	C146.782837,64.340645 145.166489,64.725449 143.219116,65.355270 
z"/>
<path fill="#000000" opacity="1.000000" stroke="none" 
	d="
M214.579834,56.961555 
	C213.870728,55.894390 213.554764,54.847374 213.238800,53.800362 
	C215.036194,53.349930 216.867493,52.479664 218.617126,52.620888 
	C219.532990,52.694813 220.305496,54.544651 221.944397,56.595688 
	C218.740585,56.773087 216.856781,56.877396 214.579834,56.961555 
z"/>
<path fill="#62BEBC" opacity="1.000000" stroke="none" 
	d="
M43.159180,61.593796 
	C41.123241,52.114876 40.989914,43.062607 43.697166,34.115986 
	C44.256241,32.268421 45.216228,30.444666 46.400116,28.929201 
	C46.910580,28.275778 48.619564,28.029537 49.483784,28.367109 
	C50.062477,28.593151 50.554741,30.289261 50.332600,31.128138 
	C47.329117,42.470211 47.706448,53.797382 49.995472,65.194412 
	C50.261711,66.520012 49.382641,68.075638 49.034550,69.524620 
	C47.672211,68.568550 46.004372,67.848137 45.033787,66.589882 
	C44.070538,65.341125 43.809185,63.550941 43.159180,61.593796 
z"/>
<path fill="#64BFBD" opacity="1.000000" stroke="none" 
	d="
M54.996773,47.132965 
	C55.606857,43.444656 56.072449,40.176846 56.910252,37.007420 
	C57.144650,36.120708 58.453274,34.988247 59.311352,34.951382 
	C60.102646,34.917385 61.475243,36.069496 61.692623,36.927082 
	C63.912861,45.686146 64.940292,54.420887 60.208580,62.845730 
	C55.836895,60.577957 55.047138,58.172997 54.996773,47.132965 
z"/>
</svg>