<svg width="39" height="11" fill="none" xmlns="http://www.w3.org/2000/svg"><g clip-path="url(#clip0_6853_199229)"><path d="M38.868 3.244a2.38 2.38 0 0 0-.949-1.134 2.8 2.8 0 0 0-1.503-.43h-.024a2.833 2.833 0 0 0-1.018.185 2.612 2.612 0 0 0-.854.532 2.624 2.624 0 0 0-.856-.532 2.85 2.85 0 0 0-1.018-.187h-.023a2.759 2.759 0 0 0-1.694.564v-.176a.332.332 0 0 0-.12-.229.408.408 0 0 0-.262-.093H28.81a.421.421 0 0 0-.272.101.346.346 0 0 0-.083.113.316.316 0 0 0-.03.133v8.497c0 .046.01.09.03.133.02.042.047.08.083.112a.422.422 0 0 0 .272.102h1.738c.093 0 .182-.03.252-.086a.336.336 0 0 0 .127-.213V4.538a.482.482 0 0 1 0-.061.548.548 0 0 1 .19-.364.669.669 0 0 1 .41-.16h.32a.722.722 0 0 1 .367.128.587.587 0 0 1 .176.204.55.55 0 0 1 .06.253l.006 6.068c0 .092.04.18.112.245.072.065.17.102.272.102h1.738a.408.408 0 0 0 .264-.096.332.332 0 0 0 .118-.234V4.53a.527.527 0 0 1 .071-.277.6.6 0 0 1 .21-.211.764.764 0 0 1 .32-.097h.321a.67.67 0 0 1 .434.182.54.54 0 0 1 .168.403l.008 6.06c0 .045.01.09.029.132.019.042.047.08.083.113a.422.422 0 0 0 .272.102h1.738c.102 0 .2-.037.272-.102a.33.33 0 0 0 .112-.245V4.072c0-.444-.055-.633-.132-.828M27.101 1.77h-.994V.315a.3.3 0 0 0-.103-.224.372.372 0 0 0-.314-.086c-1.102.272-.882 1.646-2.893 1.763H22.6a.42.42 0 0 0-.3.13.325.325 0 0 0-.085.215v1.564c0 .092.041.18.113.245.072.064.17.1.272.101h1.049v6.635c0 .091.04.178.111.242.071.064.168.1.269.1h1.717c.1 0 .197-.036.269-.1a.325.325 0 0 0 .11-.242V4.026h.975c.102 0 .2-.037.271-.102a.33.33 0 0 0 .113-.244V2.116a.33.33 0 0 0-.113-.245.407.407 0 0 0-.271-.101z" fill="#54C1F0"/><path d="M20.847 1.77H19.11a.421.421 0 0 0-.271.101.345.345 0 0 0-.083.113.316.316 0 0 0-.03.132V5.35a.35.35 0 0 1-.12.255.432.432 0 0 1-.287.106h-.727a.447.447 0 0 1-.29-.107.366.366 0 0 1-.088-.12.335.335 0 0 1-.03-.14l-.008-3.225a.33.33 0 0 0-.112-.244.407.407 0 0 0-.272-.102h-1.738a.407.407 0 0 0-.267.102.33.33 0 0 0-.112.24v3.548c0 1.347 1.067 2.306 2.564 2.306 0 0 1.123 0 1.157.006.1.008.194.05.263.116a.345.345 0 0 1 .107.245.346.346 0 0 1-.103.246.422.422 0 0 1-.26.119l-.03.005-2.542.008c-.101 0-.2.037-.271.101a.33.33 0 0 0-.113.245v1.56a.33.33 0 0 0 .112.245.422.422 0 0 0 .272.101h2.838c1.498 0 2.564-.959 2.564-2.306V2.116a.33.33 0 0 0-.113-.245.407.407 0 0 0-.272-.101zM4.023 4.636v.967a.35.35 0 0 1-.119.26.432.432 0 0 1-.288.107H2.513V4.035h1.103a.447.447 0 0 1 .288.108.367.367 0 0 1 .088.119.34.34 0 0 1 .031.14v.234zm.153-2.867h-3.8a.4.4 0 0 0-.266.1.323.323 0 0 0-.11.24v8.494a.317.317 0 0 0 .097.237.391.391 0 0 0 .254.11h1.771a.412.412 0 0 0 .272-.102.33.33 0 0 0 .113-.245l.006-2.376h1.663c1.391 0 2.361-.87 2.361-2.127V3.898c0-1.257-.97-2.129-2.361-2.129zm7.06 6.54v.241a.307.307 0 0 1-.024.108.374.374 0 0 1-.153.176.439.439 0 0 1-.237.063h-.717A.424.424 0 0 1 9.82 8.8a.344.344 0 0 1-.127-.248v-1.34a.343.343 0 0 1 .127-.247.423.423 0 0 1 .284-.095h.716a.423.423 0 0 1 .285.096.343.343 0 0 1 .126.248l.003 1.093zm-.277-6.531H8.547a.4.4 0 0 0-.267.09.324.324 0 0 0-.12.232v1.468c.005.094.05.183.126.247a.423.423 0 0 0 .283.096h2.297c.091.011.175.05.239.11.063.06.1.138.107.22v.202a.33.33 0 0 1-.103.216.401.401 0 0 1-.233.107H9.738c-1.515.001-2.59.906-2.59 2.176V8.76c0 1.262.927 2.16 2.43 2.16h3.15c.566 0 1.025-.385 1.025-.86V4.127c0-1.44-.824-2.349-2.794-2.349z" fill="#233266"/></g><defs><clipPath id="clip0_6853_199229"><path fill="#fff" d="M0 0h39v11H0z"/></clipPath></defs></svg>