<svg fill="none" height="13" width="47" xmlns="http://www.w3.org/2000/svg"><path d="m43.923.906 2.627 5.259-5.521 5.262z" fill="#008c44"/><path d="m42.105.906 2.622 5.259-5.517 5.262z" fill="#f47920"/><path d="m0 9.514 2.618-9.514h4.187c1.308 0 2.182.209 2.627.64.44.426.526 1.123.26 2.103-.161.577-.406 1.061-.742 1.444-.333.383-.773.687-1.314.91.46.111.751.332.882.664.13.331.116.815-.043 1.448l-.318 1.33v.035c-.093.373-.066.572.084.588l-.096.352h-2.832c.01-.224.027-.424.046-.592.02-.172.046-.305.07-.397l.265-.95c.133-.494.141-.839.018-1.037-.125-.204-.404-.304-.844-.304h-1.19l-.908 3.28zm4.267-5.424h1.273c.447 0 .777-.065.98-.198.204-.134.356-.36.445-.688.092-.334.069-.566-.063-.698-.132-.134-.448-.2-.944-.2h-1.201zm13.197-1.597-1.93 7.021h-2.346l.288-1.028c-.413.409-.835.72-1.261.918a3.062 3.062 0 0 1 -1.338.301c-.388 0-.72-.07-.989-.212a1.36 1.36 0 0 1 -.61-.635c-.12-.247-.173-.551-.152-.915.022-.357.147-.961.38-1.806l1-3.644h2.566l-.999 3.627c-.146.53-.18.903-.11 1.107.075.205.273.31.594.31.323 0 .595-.118.819-.359.228-.238.404-.595.536-1.069l.99-3.616zm-.931 7.021 2.616-9.514h3.598c.794 0 1.408.047 1.846.15.438.1.78.262 1.036.49.319.297.515.665.595 1.107.076.442.031.957-.135 1.562-.293 1.063-.806 1.878-1.538 2.448-.735.562-1.643.844-2.727.844h-1.684l-.8 2.913zm4.244-5.236h.905c.585 0 .996-.073 1.237-.214.233-.142.4-.395.5-.755.101-.365.075-.62-.078-.763-.146-.141-.522-.213-1.123-.213h-.903zm8.331 5.237.026-.667a4.66 4.66 0 0 1 -1.254.696 3.95 3.95 0 0 1 -1.345.227c-.726 0-1.233-.2-1.526-.585-.29-.386-.337-.94-.14-1.648.19-.698.526-1.212 1.01-1.54.483-.333 1.289-.571 2.419-.723.143-.024.335-.043.576-.072.835-.098 1.304-.322 1.405-.689.053-.2.021-.348-.102-.439-.12-.094-.342-.14-.664-.14-.267 0-.481.055-.657.171a1.037 1.037 0 0 0 -.396.529h-2.502c.226-.79.688-1.387 1.38-1.787.691-.406 1.601-.602 2.729-.602.53 0 1.005.05 1.424.16.42.103.728.251.927.43.246.225.39.48.432.762.048.281-.004.685-.15 1.213l-1.077 3.914a.787.787 0 0 0 -.022.347c.022.099.065.184.141.244l-.058.199zm.624-3.135c-.273.11-.627.216-1.067.332-.691.187-1.08.437-1.164.745-.058.199-.035.352.061.468.095.11.26.166.492.166.426 0 .768-.108 1.023-.323.256-.217.447-.558.58-1.028.024-.1.044-.172.058-.226zm1.972 5.9.57-2.077h.734c.245 0 .438-.05.575-.138.138-.092.233-.248.287-.458.027-.093.044-.19.055-.3.008-.117.008-.241 0-.385l-.391-6.428h2.597l-.04 4.26 2.267-4.26h2.415l-4.008 6.986c-.455.781-.786 1.318-.996 1.61-.207.29-.403.515-.594.667-.248.21-.524.36-.822.446-.299.09-.754.133-1.365.133-.176 0-.379-.003-.598-.015-.217-.008-.45-.021-.686-.04z" fill="#1b3281"/></svg>