<svg fill="none" height="17" width="47" xmlns="http://www.w3.org/2000/svg" xmlns:xlink="http://www.w3.org/1999/xlink"><clipPath id="a"><path d="m0 0h47v16.597h-47z"/></clipPath><g clip-path="url(#a)" clip-rule="evenodd" fill-rule="evenodd"><path d="m.377 14.253h.353l-.33 1.368c-.05.2-.039.357.028.457.067.101.19.151.374.151.18 0 .33-.05.447-.15.118-.1.196-.258.246-.458l.33-1.368h.357l-.335 1.401c-.072.302-.2.53-.39.681-.185.15-.431.229-.733.229-.301 0-.508-.073-.62-.223-.112-.151-.134-.38-.061-.681l.335-1.406zm42.384 2.25.536-2.25h1.223l-.072.313h-.866l-.134.563h.866l-.078.319h-.866l-.172.725h.865l-.078.33h-1.223zm-.033-1.703a.714.714 0 0 0 -.274-.195.828.828 0 0 0 -.34-.067.98.98 0 0 0 -.642.234c-.19.157-.313.363-.375.614-.056.24-.033.441.079.603.106.156.273.234.496.234.132 0 .263-.024.386-.072a1.59 1.59 0 0 0 .39-.212l-.1.413c-.108.07-.227.123-.352.156-.124.034-.251.05-.38.05a1.117 1.117 0 0 1 -.446-.084.798.798 0 0 1 -.475-.63 1.131 1.131 0 0 1 .028-.469 1.537 1.537 0 0 1 .536-.843 1.424 1.424 0 0 1 .91-.335.935.935 0 0 1 .653.228zm-3.474.815h.61l-.101-.514a.684.684 0 0 1 -.012-.111 1.082 1.082 0 0 1 -.005-.14c-.021.049-.045.095-.073.14-.02.04-.042.08-.067.117zm.776.888-.112-.582h-.871l-.391.582h-.374l1.62-2.339.502 2.339zm-2.949 0 .536-2.25h1.223l-.072.313h-.866l-.134.558h.866l-.079.318h-.865l-.251 1.055h-.358zm-1.055-1.295h.067c.19 0 .318-.022.391-.067.072-.046.123-.123.15-.24.029-.123.017-.213-.038-.263-.056-.05-.173-.078-.352-.078h-.067zm-.09.284-.24 1.005h-.334l.536-2.25h.497c.11-.002.22.008.33.029.068.013.132.046.183.095a.383.383 0 0 1 .106.212.71.71 0 0 1 -.011.284.826.826 0 0 1 -.229.425.76.76 0 0 1 -.419.184l.509 1.02h-.403l-.486-1.004h-.038zm-2.203 1.01.536-2.249h1.227l-.072.313h-.866l-.134.563h.866l-.078.319h-.866l-.172.725h.865l-.078.33h-1.228zm-.385-1.942-.464 1.937h-.357l.463-1.937h-.581l.072-.312h1.52l-.073.312h-.582zm-3.636 1.943.559-2.339 1.06 1.373c.029.04.056.078.084.123.028.044.056.095.09.15l.374-1.557h.33l-.56 2.333-1.082-1.4-.084-.118a.6.6 0 0 1 -.067-.134l-.374 1.563h-.33v.005zm-.871 0 .536-2.25h.357l-.536 2.25zm-2.63-.453.318-.133c.005.1.033.178.095.228s.145.079.257.079a.425.425 0 0 0 .273-.09.405.405 0 0 0 .151-.24c.034-.134-.044-.25-.234-.351a.34.34 0 0 0 -.062-.034c-.212-.123-.346-.228-.402-.329a.478.478 0 0 1 -.033-.357.777.777 0 0 1 .29-.446.843.843 0 0 1 .52-.173c.162 0 .29.034.385.095a.37.37 0 0 1 .162.274l-.315.144a.34.34 0 0 0 -.106-.156.273.273 0 0 0 -.168-.05.403.403 0 0 0 -.245.078.355.355 0 0 0 -.135.206c-.033.134.062.262.28.38a.257.257 0 0 0 .04.021c.19.1.318.201.374.301.055.1.067.218.033.369a.888.888 0 0 1 -.893.697c-.184 0-.33-.044-.431-.134-.112-.089-.162-.217-.156-.38l.002.002zm-.374-1.49-.464 1.937h-.357l.463-1.937h-.581l.072-.312h1.52l-.074.312h-.58zm-3.637 1.943.559-2.339 1.06 1.373c.029.04.057.078.085.123.028.044.055.095.089.15l.374-1.557h.33l-.559 2.333-1.083-1.4-.084-.118a.607.607 0 0 1 -.067-.134l-.374 1.563h-.33v.005zm-1.63 0 .536-2.25h1.223l-.073.313h-.865l-.134.563h.865l-.078.319h-.866l-.172.725h.866l-.078.33zm-.592-1.111c0-.017.005-.067.017-.145.005-.067.01-.117.016-.162a1.19 1.19 0 0 1 -.173.313l-.86 1.2-.28-1.222c-.01-.05-.02-.1-.027-.146a1.185 1.185 0 0 1 -.011-.139c-.012.045-.028.095-.045.15a1.26 1.26 0 0 1 -.067.163l-.502 1.105h-.33l1.077-2.344.307 1.417c.008.037.013.074.017.112.006.05.017.117.028.195.039-.067.09-.145.156-.245a.504.504 0 0 0 .04-.062l.971-1.417-.034 2.344h-.329l.028-1.117zm-3.4 1.11.245-1.026-.447-1.217h.374l.28.765c.006.021.011.044.022.078.01.033.016.067.027.1l.068-.1c.021-.034.044-.062.067-.09l.653-.753h.357l-1.044 1.211-.246 1.027h-.357v.005zm-1.66-.887h.61l-.101-.514a.673.673 0 0 1 -.011-.111 1.1 1.1 0 0 1 -.006-.14 1.125 1.125 0 0 1 -.073.14c-.02.04-.042.08-.067.117zm.771.888-.111-.582h-.872l-.39.582h-.377l1.62-2.339.502 2.339zm-2.24-1.312h.09c.195 0 .335-.022.413-.067.078-.046.13-.123.156-.235.028-.117.011-.206-.044-.25-.062-.05-.185-.073-.369-.073h-.09l-.155.624v.001zm-.095.301-.24 1.01h-.335l.536-2.249h.542c.162 0 .274.011.346.028a.341.341 0 0 1 .173.09c.06.056.098.13.111.212a.735.735 0 0 1 -.01.29.93.93 0 0 1 -.13.296.772.772 0 0 1 -.212.212.751.751 0 0 1 -.218.089 1.83 1.83 0 0 1 -.357.028h-.207v-.006zm-3.334.676h.301c.162 0 .29-.012.38-.034a.726.726 0 0 0 .24-.111.91.91 0 0 0 .251-.274c.072-.117.123-.245.151-.38a.999.999 0 0 0 .028-.373.512.512 0 0 0 -.123-.274.379.379 0 0 0 -.195-.111 1.712 1.712 0 0 0 -.397-.034h-.256l-.38 1.59zm-.436.335.536-2.25h.481c.313 0 .53.017.648.05a.666.666 0 0 1 .296.162c.102.104.17.236.195.38.028.156.017.335-.028.53-.044.188-.12.367-.223.53a1.299 1.299 0 0 1 -.38.38 1.092 1.092 0 0 1 -.368.162 2.5 2.5 0 0 1 -.582.05h-.575v.005zm-1.637 0 .536-2.25h1.223l-.072.313h-.866l-.134.563h.866l-.079.319h-.865l-.173.725h.866l-.078.33h-1.221zm-.865 0 .536-2.25h.357l-.536 2.25zm-1.62 0 .536-2.25h1.223l-.072.313h-.866l-.134.558h.865l-.078.318h-.865l-.252 1.055h-.357zm-.866 0 .536-2.25h.358l-.536 2.25zm-2.468 0 .559-2.339 1.06 1.373c.028.04.056.078.084.123.029.044.056.095.09.15l.374-1.557h.33l-.559 2.333-1.083-1.4-.084-.118a.601.601 0 0 1 -.067-.134l-.374 1.563h-.33v.005z" fill="#3a3734"/><path d="m36.261 12.294h-2.451l3.406-12.294h2.452l-3.408 12.294zm-20.37-.77a1.13 1.13 0 0 1 -1.084.826h-12.637c-.347 0-.604-.117-.771-.351-.168-.235-.207-.525-.106-.871l3.082-11.094h2.452l-2.753 9.91h9.806l2.752-9.91h2.452l-3.194 11.49zm19.096-11.139c-.167-.234-.43-.351-.787-.351h-13.47l-.664 2.41h12.254l-.715 2.573h-9.8v-.006h-2.451l-2.033 7.34h2.451l1.363-4.923h11.015c.346 0 .67-.117.972-.352.302-.234.503-.524.598-.87l1.362-4.922c.106-.368.073-.664-.095-.899z" fill="#716d6a"/><path d="m43.9.022 3.1 6.161-6.517 6.162.775-2.795 3.564-3.367-1.696-3.37.774-2.79z" fill="#0e8635"/><path d="m41.723.022 3.099 6.161-6.522 6.162z" fill="#e97208"/></g></svg>